<svg xmlns="http://www.w3.org/2000/svg" width="610" height="478" viewBox="0 0 610 478">
  <defs>
    <marker id="arrow" markerWidth="10" markerHeight="10" refX="9" refY="3" orient="auto">
      <path d="M0,0 L10,3 L0,6 Z" fill="#64748b" />
    </marker>
  </defs>
  <rect width="100%" height="100%" fill="#f8fafc"/>
  <text x="305.0" y="24" text-anchor="middle" font-family="Segoe UI, Arial" font-size="20" font-weight="700" fill="#0f172a">Coffee Market Expansion Analysis</text>
  <path d="M 260 127.0 C 295.0 127.0, 295.0 103.0, 330 103.0" stroke="#64748b" stroke-width="2.5" fill="none" marker-end="url(#arrow)"/>
<rect x="247.0" y="103.0" width="96" height="20" rx="8" fill="#eff6ff" stroke="#bfdbfe"/><text x="295.0" y="117.0" text-anchor="middle" font-family="Segoe UI, Arial" font-size="11" fill="#1d4ed8">1-to-many</text><path d="M 440.0 166 C 440.0 166, 440.0 220, 440.0 220" stroke="#64748b" stroke-width="2.5" fill="none" marker-end="url(#arrow)"/>
<rect x="392.0" y="181.0" width="96" height="20" rx="8" fill="#eff6ff" stroke="#bfdbfe"/><text x="440.0" y="195.0" text-anchor="middle" font-family="Segoe UI, Arial" font-size="11" fill="#1d4ed8">1-to-many</text><path d="M 260 323.0 C 295.0 323.0, 295.0 319.0, 330 319.0" stroke="#64748b" stroke-width="2.5" fill="none" marker-end="url(#arrow)"/>
<rect x="247.0" y="309.0" width="96" height="20" rx="8" fill="#eff6ff" stroke="#bfdbfe"/><text x="295.0" y="323.0" text-anchor="middle" font-family="Segoe UI, Arial" font-size="11" fill="#1d4ed8">1-to-many</text>
  <rect x="40" y="40" width="220" height="174" rx="12" fill="#ffffff" stroke="#1f2937" stroke-width="2"/>
<rect x="40" y="40" width="220" height="34" rx="12" fill="#1f4e79" stroke="#1f2937" stroke-width="2"/>
<text x="150.0" y="62" text-anchor="middle" font-family="Segoe UI, Arial" font-size="16" font-weight="700" fill="#ffffff">city</text>
<text x="54" y="94" font-family="Segoe UI, Arial" font-size="13" fill="#111827">PK city_id</text>
<text x="54" y="118" font-family="Segoe UI, Arial" font-size="13" fill="#111827">city_name</text>
<text x="54" y="142" font-family="Segoe UI, Arial" font-size="13" fill="#111827">population</text>
<text x="54" y="166" font-family="Segoe UI, Arial" font-size="13" fill="#111827">estimated_rent</text>
<text x="54" y="190" font-family="Segoe UI, Arial" font-size="13" fill="#111827">city_rank</text><rect x="330" y="40" width="220" height="126" rx="12" fill="#ffffff" stroke="#1f2937" stroke-width="2"/>
<rect x="330" y="40" width="220" height="34" rx="12" fill="#1f4e79" stroke="#1f2937" stroke-width="2"/>
<text x="440.0" y="62" text-anchor="middle" font-family="Segoe UI, Arial" font-size="16" font-weight="700" fill="#ffffff">customers</text>
<text x="344" y="94" font-family="Segoe UI, Arial" font-size="13" fill="#111827">PK customer_id</text>
<text x="344" y="118" font-family="Segoe UI, Arial" font-size="13" fill="#111827">customer_name</text>
<text x="344" y="142" font-family="Segoe UI, Arial" font-size="13" fill="#111827">FK city_id</text><rect x="40" y="260" width="220" height="126" rx="12" fill="#ffffff" stroke="#1f2937" stroke-width="2"/>
<rect x="40" y="260" width="220" height="34" rx="12" fill="#1f4e79" stroke="#1f2937" stroke-width="2"/>
<text x="150.0" y="282" text-anchor="middle" font-family="Segoe UI, Arial" font-size="16" font-weight="700" fill="#ffffff">products</text>
<text x="54" y="314" font-family="Segoe UI, Arial" font-size="13" fill="#111827">PK product_id</text>
<text x="54" y="338" font-family="Segoe UI, Arial" font-size="13" fill="#111827">product_name</text>
<text x="54" y="362" font-family="Segoe UI, Arial" font-size="13" fill="#111827">price</text><rect x="330" y="220" width="220" height="198" rx="12" fill="#ffffff" stroke="#1f2937" stroke-width="2"/>
<rect x="330" y="220" width="220" height="34" rx="12" fill="#1f4e79" stroke="#1f2937" stroke-width="2"/>
<text x="440.0" y="242" text-anchor="middle" font-family="Segoe UI, Arial" font-size="16" font-weight="700" fill="#ffffff">sales</text>
<text x="344" y="274" font-family="Segoe UI, Arial" font-size="13" fill="#111827">PK sale_id</text>
<text x="344" y="298" font-family="Segoe UI, Arial" font-size="13" fill="#111827">sale_date</text>
<text x="344" y="322" font-family="Segoe UI, Arial" font-size="13" fill="#111827">FK product_id</text>
<text x="344" y="346" font-family="Segoe UI, Arial" font-size="13" fill="#111827">FK customer_id</text>
<text x="344" y="370" font-family="Segoe UI, Arial" font-size="13" fill="#111827">total</text>
<text x="344" y="394" font-family="Segoe UI, Arial" font-size="13" fill="#111827">rating</text>
</svg>
